<?xml version="1.0" encoding="UTF-8" standalone="no"?><!DOCTYPE svg PUBLIC "-//W3C//DTD SVG 1.1//EN" "http://www.w3.org/Graphics/SVG/1.1/DTD/svg11.dtd"><!-- Generated by graphviz version 2.40.1 (20161225.0304)
 --><!-- Title: %0 Pages: 1 --><svg xmlns="http://www.w3.org/2000/svg" xmlns:xlink="http://www.w3.org/1999/xlink" width="848pt" height="1240pt" viewBox="0.00 0.00 847.61 1240.00">
<g id="graph0" class="graph" transform="scale(1 1) rotate(0) translate(4 1236)">
<title>%0</title>
<polygon fill="#ffffff" stroke="transparent" points="-4,4 -4,-1236 843.6095,-1236 843.6095,4 -4,4"/>
<!-- 40 -->
<g id="node1" class="node">
<title>40</title>
<g id="a_node1"><a xlink:title="&lt;frozen importlib._bootstrap&gt;">
<polygon fill="#0d1976" stroke="#0d1976" points="523.1296,-1232 342.5794,-1232 342.5794,-1176 523.1296,-1176 523.1296,-1232"/>
<text text-anchor="middle" x="432.8545" y="-1219" font-family="Arial" font-size="10.00" fill="#ffffff">&lt;frozen importlib:966:_find_and_load</text>
<text text-anchor="middle" x="432.8545" y="-1207" font-family="Arial" font-size="10.00" fill="#ffffff">2.80%</text>
<text text-anchor="middle" x="432.8545" y="-1195" font-family="Arial" font-size="10.00" fill="#ffffff">(0.02%)</text>
<text text-anchor="middle" x="432.8545" y="-1183" font-family="Arial" font-size="10.00" fill="#ffffff">177×</text>
</a>
</g>
</g>
<!-- 147 -->
<g id="node2" class="node">
<title>147</title>
<g id="a_node2"><a xlink:title="&lt;frozen importlib._bootstrap&gt;">
<polygon fill="#0d1976" stroke="#0d1976" points="419.2028,-1134 192.5062,-1134 192.5062,-1078 419.2028,-1078 419.2028,-1134"/>
<text text-anchor="middle" x="305.8545" y="-1121" font-family="Arial" font-size="10.00" fill="#ffffff">&lt;frozen importlib:936:_find_and_load_unlocked</text>
<text text-anchor="middle" x="305.8545" y="-1109" font-family="Arial" font-size="10.00" fill="#ffffff">2.80%</text>
<text text-anchor="middle" x="305.8545" y="-1097" font-family="Arial" font-size="10.00" fill="#ffffff">(0.01%)</text>
<text text-anchor="middle" x="305.8545" y="-1085" font-family="Arial" font-size="10.00" fill="#ffffff">177×</text>
</a>
</g>
</g>
<!-- 40&#45;&gt;147 -->
<g id="edge1" class="edge">
<title>40-&gt;147</title>
<path fill="none" stroke="#0d1976" stroke-width=".5" d="M396.4614,-1175.9171C380.3864,-1163.5128 361.4582,-1148.9068 345.0705,-1136.2612"/>
<polygon fill="#0d1976" stroke="#0d1976" stroke-width=".5" points="345.7723,-1135.2554 342.2529,-1134.087 344.2755,-1137.195 345.7723,-1135.2554"/>
<text text-anchor="middle" x="398.027" y="-1158" font-family="Arial" font-size="10.00" fill="#0d1976">2.80%</text>
<text text-anchor="middle" x="398.027" y="-1146" font-family="Arial" font-size="10.00" fill="#0d1976">2×</text>
</g>
<!-- 252 -->
<g id="node13" class="node">
<title>252</title>
<g id="a_node13"><a xlink:title="&lt;frozen importlib._bootstrap&gt;">
<polygon fill="#0d1976" stroke="#0d1976" points="348.2215,-840 111.4875,-840 111.4875,-784 348.2215,-784 348.2215,-840"/>
<text text-anchor="middle" x="229.8545" y="-827" font-family="Arial" font-size="10.00" fill="#ffffff">&lt;frozen importlib:211:_call_with_frames_removed</text>
<text text-anchor="middle" x="229.8545" y="-815" font-family="Arial" font-size="10.00" fill="#ffffff">2.79%</text>
<text text-anchor="middle" x="229.8545" y="-803" font-family="Arial" font-size="10.00" fill="#ffffff">(0.00%)</text>
<text text-anchor="middle" x="229.8545" y="-791" font-family="Arial" font-size="10.00" fill="#ffffff">253×</text>
</a>
</g>
</g>
<!-- 147&#45;&gt;252 -->
<g id="edge9" class="edge">
<title>147-&gt;252</title>
<path fill="none" stroke="#0d0d73" stroke-width=".5" d="M260.5898,-1077.7416C246.8032,-1066.588 233.3279,-1052.4697 225.8545,-1036 197.1111,-972.6561 210.4799,-888.4955 221.1499,-843.5173"/>
<polygon fill="#0d0d73" stroke="#0d0d73" stroke-width=".5" points="222.3484,-843.7725 221.9776,-840.0828 219.9666,-843.1984 222.3484,-843.7725"/>
<text text-anchor="middle" x="224.027" y="-962" font-family="Arial" font-size="10.00" fill="#0d0d73">0.17%</text>
<text text-anchor="middle" x="224.027" y="-950" font-family="Arial" font-size="10.00" fill="#0d0d73">2×</text>
</g>
<!-- 369 -->
<g id="node14" class="node">
<title>369</title>
<g id="a_node14"><a xlink:title="&lt;frozen importlib._bootstrap&gt;">
<polygon fill="#0d1976" stroke="#0d1976" points="413.292,-1036 230.417,-1036 230.417,-980 413.292,-980 413.292,-1036"/>
<text text-anchor="middle" x="321.8545" y="-1023" font-family="Arial" font-size="10.00" fill="#ffffff">&lt;frozen importlib:651:_load_unlocked</text>
<text text-anchor="middle" x="321.8545" y="-1011" font-family="Arial" font-size="10.00" fill="#ffffff">2.79%</text>
<text text-anchor="middle" x="321.8545" y="-999" font-family="Arial" font-size="10.00" fill="#ffffff">(0.01%)</text>
<text text-anchor="middle" x="321.8545" y="-987" font-family="Arial" font-size="10.00" fill="#ffffff">169×</text>
</a>
</g>
</g>
<!-- 147&#45;&gt;369 -->
<g id="edge10" class="edge">
<title>147-&gt;369</title>
<path fill="none" stroke="#0d1976" stroke-width=".5" d="M310.4395,-1077.9171C312.381,-1066.0254 314.6528,-1052.1101 316.6564,-1039.8386"/>
<polygon fill="#0d1976" stroke="#0d1976" stroke-width=".5" points="317.9138,-1039.7386 317.2689,-1036.087 315.4958,-1039.3438 317.9138,-1039.7386"/>
<text text-anchor="middle" x="330.027" y="-1060" font-family="Arial" font-size="10.00" fill="#0d1976">2.79%</text>
<text text-anchor="middle" x="330.027" y="-1048" font-family="Arial" font-size="10.00" fill="#0d1976">2×</text>
</g>
<!-- 83 -->
<g id="node3" class="node">
<title>83</title>
<g id="a_node3"><a xlink:title="/usr/local/lib/python3.6/dist-packages/numpy/core/__init__.py">
<polygon fill="#0d1375" stroke="#0d1375" points="259.9463,-644 153.7627,-644 153.7627,-588 259.9463,-588 259.9463,-644"/>
<text text-anchor="middle" x="206.8545" y="-631" font-family="Arial" font-size="10.00" fill="#ffffff">__init__:7:&lt;module&gt;</text>
<text text-anchor="middle" x="206.8545" y="-619" font-family="Arial" font-size="10.00" fill="#ffffff">1.42%</text>
<text text-anchor="middle" x="206.8545" y="-607" font-family="Arial" font-size="10.00" fill="#ffffff">(0.00%)</text>
<text text-anchor="middle" x="206.8545" y="-595" font-family="Arial" font-size="10.00" fill="#ffffff">1×</text>
</a>
</g>
</g>
<!-- 179 -->
<g id="node4" class="node">
<title>179</title>
<g id="a_node4"><a xlink:title="&lt;frozen importlib._bootstrap&gt;">
<polygon fill="#0d1776" stroke="#0d1776" points="224.6087,-546 39.1003,-546 39.1003,-490 224.6087,-490 224.6087,-546"/>
<text text-anchor="middle" x="131.8545" y="-533" font-family="Arial" font-size="10.00" fill="#ffffff">&lt;frozen importlib:997:_handle_fromlist</text>
<text text-anchor="middle" x="131.8545" y="-521" font-family="Arial" font-size="10.00" fill="#ffffff">2.51%</text>
<text text-anchor="middle" x="131.8545" y="-509" font-family="Arial" font-size="10.00" fill="#ffffff">(0.02%)</text>
<text text-anchor="middle" x="131.8545" y="-497" font-family="Arial" font-size="10.00" fill="#ffffff">905×</text>
</a>
</g>
</g>
<!-- 83&#45;&gt;179 -->
<g id="edge2" class="edge">
<title>83-&gt;179</title>
<path fill="none" stroke="#0d1375" stroke-width=".5" d="M185.3625,-587.9171C176.0263,-575.7178 165.0604,-561.389 155.4947,-548.8898"/>
<polygon fill="#0d1375" stroke="#0d1375" stroke-width=".5" points="156.4496,-548.1219 153.3496,-546.087 154.504,-549.6109 156.4496,-548.1219"/>
<text text-anchor="middle" x="193.027" y="-570" font-family="Arial" font-size="10.00" fill="#0d1375">1.41%</text>
<text text-anchor="middle" x="193.027" y="-558" font-family="Arial" font-size="10.00" fill="#0d1375">32×</text>
</g>
<!-- 179&#45;&gt;252 -->
<g id="edge11" class="edge">
<title>179-&gt;252</title>
<path fill="none" stroke="#0d1776" stroke-width=".5" d="M129.9328,-546.1263C126.8505,-598.716 122.9182,-709.5569 141.8545,-742 150.8957,-757.4901 164.7818,-770.8778 178.8707,-781.677"/>
<polygon fill="#0d1776" stroke="#0d1776" stroke-width=".5" points="178.1575,-782.6735 181.6898,-783.8022 179.6323,-780.7171 178.1575,-782.6735"/>
<text text-anchor="middle" x="143.027" y="-668" font-family="Arial" font-size="10.00" fill="#0d1776">2.50%</text>
<text text-anchor="middle" x="143.027" y="-656" font-family="Arial" font-size="10.00" fill="#0d1776">11×</text>
</g>
<!-- 86 -->
<g id="node5" class="node">
<title>86</title>
<g id="a_node5"><a xlink:title="kmeans_cpu.py">
<polygon fill="#f15a02" stroke="#f15a02" points="535.3312,-252 374.3778,-252 374.3778,-196 535.3312,-196 535.3312,-252"/>
<text text-anchor="middle" x="454.8545" y="-239" font-family="Arial" font-size="10.00" fill="#ffffff">kmeans_cpu:30:calculateCluster</text>
<text text-anchor="middle" x="454.8545" y="-227" font-family="Arial" font-size="10.00" fill="#ffffff">90.77%</text>
<text text-anchor="middle" x="454.8545" y="-215" font-family="Arial" font-size="10.00" fill="#ffffff">(26.77%)</text>
<text text-anchor="middle" x="454.8545" y="-203" font-family="Arial" font-size="10.00" fill="#ffffff">35×</text>
</a>
</g>
</g>
<!-- 403 -->
<g id="node6" class="node">
<title>403</title>
<g id="a_node6"><a xlink:title="~">
<polygon fill="#0d1675" stroke="#0d1675" points="535.0616,-56 374.6474,-56 374.6474,0 535.0616,0 535.0616,-56"/>
<text text-anchor="middle" x="454.8545" y="-43" font-family="Arial" font-size="10.00" fill="#ffffff">~:0:&lt;built-in method builtins.len&gt;</text>
<text text-anchor="middle" x="454.8545" y="-31" font-family="Arial" font-size="10.00" fill="#ffffff">2.13%</text>
<text text-anchor="middle" x="454.8545" y="-19" font-family="Arial" font-size="10.00" fill="#ffffff">(2.13%)</text>
<text text-anchor="middle" x="454.8545" y="-7" font-family="Arial" font-size="10.00" fill="#ffffff">2103515×</text>
</a>
</g>
</g>
<!-- 86&#45;&gt;403 -->
<g id="edge3" class="edge">
<title>86-&gt;403</title>
<path fill="none" stroke="#0d0e73" stroke-width=".5" d="M452.1475,-195.76C451.0557,-183.0157 449.9287,-167.7639 449.3925,-154 448.4237,-129.13 448.4237,-122.87 449.3925,-98 449.8784,-85.5264 450.8496,-71.831 451.8401,-59.8872"/>
<polygon fill="#0d0e73" stroke="#0d0e73" stroke-width=".5" points="453.0741,-59.8306 452.1475,-56.24 450.6327,-59.6247 453.0741,-59.8306"/>
<text text-anchor="middle" x="468.5855" y="-129" font-family="Arial" font-size="10.00" fill="#0d0e73">0.37%</text>
<text text-anchor="middle" x="468.5855" y="-117" font-family="Arial" font-size="10.00" fill="#0d0e73">350070×</text>
</g>
<!-- 408 -->
<g id="node7" class="node">
<title>408</title>
<g id="a_node7"><a xlink:title="kmeans_cpu.py">
<polygon fill="#6dc808" stroke="#6dc808" points="639.8855,-154 493.8235,-154 493.8235,-98 639.8855,-98 639.8855,-154"/>
<text text-anchor="middle" x="566.8545" y="-141" font-family="Arial" font-size="10.00" fill="#ffffff">kmeans_cpu:24:calcDistance</text>
<text text-anchor="middle" x="566.8545" y="-129" font-family="Arial" font-size="10.00" fill="#ffffff">63.16%</text>
<text text-anchor="middle" x="566.8545" y="-117" font-family="Arial" font-size="10.00" fill="#ffffff">(61.42%)</text>
<text text-anchor="middle" x="566.8545" y="-105" font-family="Arial" font-size="10.00" fill="#ffffff">1750000×</text>
</a>
</g>
</g>
<!-- 86&#45;&gt;408 -->
<g id="edge4" class="edge">
<title>86-&gt;408</title>
<path fill="none" stroke="#6dc808" stroke-width="2.53" d="M486.9492,-195.9171C499.954,-184.5379 515.0763,-171.3059 528.6439,-159.4343"/>
<polygon fill="#6dc808" stroke="#6dc808" stroke-width="2.53" points="530.6305,-161.3701 534.7551,-154.087 526.989,-157.2083 530.6305,-161.3701"/>
<text text-anchor="middle" x="546.365" y="-178" font-family="Arial" font-size="10.00" fill="#6dc808">63.16%</text>
<text text-anchor="middle" x="546.365" y="-166" font-family="Arial" font-size="10.00" fill="#6dc808">1750000×</text>
</g>
<!-- 408&#45;&gt;403 -->
<g id="edge20" class="edge">
<title>408-&gt;403</title>
<path fill="none" stroke="#0d1475" stroke-width=".5" d="M534.7598,-97.9171C520.7006,-85.6153 504.1665,-71.148 489.7975,-58.5751"/>
<polygon fill="#0d1475" stroke="#0d1475" stroke-width=".5" points="490.3946,-57.4699 486.9539,-56.087 488.7813,-59.3137 490.3946,-57.4699"/>
<text text-anchor="middle" x="546.365" y="-80" font-family="Arial" font-size="10.00" fill="#0d1475">1.75%</text>
<text text-anchor="middle" x="546.365" y="-68" font-family="Arial" font-size="10.00" fill="#0d1475">1750000×</text>
</g>
<!-- 87 -->
<g id="node8" class="node">
<title>87</title>
<g id="a_node8"><a xlink:title="kmeans_cpu.py">
<polygon fill="#0d1d78" stroke="#0d1d78" points="735.4459,-252 544.2631,-252 544.2631,-196 735.4459,-196 735.4459,-252"/>
<text text-anchor="middle" x="639.8545" y="-239" font-family="Arial" font-size="10.00" fill="#ffffff">kmeans_cpu:47:calculateNewCentroids</text>
<text text-anchor="middle" x="639.8545" y="-227" font-family="Arial" font-size="10.00" fill="#ffffff">3.86%</text>
<text text-anchor="middle" x="639.8545" y="-215" font-family="Arial" font-size="10.00" fill="#ffffff">(3.85%)</text>
<text text-anchor="middle" x="639.8545" y="-203" font-family="Arial" font-size="10.00" fill="#ffffff">35×</text>
</a>
</g>
</g>
<!-- 88 -->
<g id="node9" class="node">
<title>88</title>
<g id="a_node9"><a xlink:title="kmeans_cpu.py">
<polygon fill="#fa2501" stroke="#fa2501" points="718.443,-448 557.266,-448 557.266,-392 718.443,-392 718.443,-448"/>
<text text-anchor="middle" x="637.8545" y="-435" font-family="Arial" font-size="10.00" fill="#ffffff">kmeans_cpu:93:runKMeansCPU</text>
<text text-anchor="middle" x="637.8545" y="-423" font-family="Arial" font-size="10.00" fill="#ffffff">96.41%</text>
<text text-anchor="middle" x="637.8545" y="-411" font-family="Arial" font-size="10.00" fill="#ffffff">(0.53%)</text>
<text text-anchor="middle" x="637.8545" y="-399" font-family="Arial" font-size="10.00" fill="#ffffff">1×</text>
</a>
</g>
</g>
<!-- 409 -->
<g id="node10" class="node">
<title>409</title>
<g id="a_node10"><a xlink:title="kmeans_cpu.py">
<polygon fill="#f83001" stroke="#f83001" points="607.1587,-350 488.5503,-350 488.5503,-294 607.1587,-294 607.1587,-350"/>
<text text-anchor="middle" x="547.8545" y="-337" font-family="Arial" font-size="10.00" fill="#ffffff">kmeans_cpu:61:cluster</text>
<text text-anchor="middle" x="547.8545" y="-325" font-family="Arial" font-size="10.00" fill="#ffffff">95.24%</text>
<text text-anchor="middle" x="547.8545" y="-313" font-family="Arial" font-size="10.00" fill="#ffffff">(0.56%)</text>
<text text-anchor="middle" x="547.8545" y="-301" font-family="Arial" font-size="10.00" fill="#ffffff">1×</text>
</a>
</g>
</g>
<!-- 88&#45;&gt;409 -->
<g id="edge5" class="edge">
<title>88-&gt;409</title>
<path fill="none" stroke="#f83001" stroke-width="3.81" d="M612.0641,-391.9171C602.1787,-381.153 590.7707,-368.731 580.3379,-357.3708"/>
<polygon fill="#f83001" stroke="#f83001" stroke-width="3.81" points="582.8038,-354.9849 573.6487,-350.087 577.7511,-359.6251 582.8038,-354.9849"/>
<text text-anchor="middle" x="619.8065" y="-374" font-family="Arial" font-size="10.00" fill="#f83001">95.24%</text>
<text text-anchor="middle" x="619.8065" y="-362" font-family="Arial" font-size="10.00" fill="#f83001">1×</text>
</g>
<!-- 845 -->
<g id="node11" class="node">
<title>845</title>
<g id="a_node11"><a xlink:title="~">
<polygon fill="#0d0f73" stroke="#0d0f73" points="839.365,-350 616.344,-350 616.344,-294 839.365,-294 839.365,-350"/>
<text text-anchor="middle" x="727.8545" y="-337" font-family="Arial" font-size="10.00" fill="#ffffff">~:0:&lt;method 'sum' of 'numpy.ndarray' objects&gt;</text>
<text text-anchor="middle" x="727.8545" y="-325" font-family="Arial" font-size="10.00" fill="#ffffff">0.54%</text>
<text text-anchor="middle" x="727.8545" y="-313" font-family="Arial" font-size="10.00" fill="#ffffff">(0.08%)</text>
<text text-anchor="middle" x="727.8545" y="-301" font-family="Arial" font-size="10.00" fill="#ffffff">10000×</text>
</a>
</g>
</g>
<!-- 88&#45;&gt;845 -->
<g id="edge6" class="edge">
<title>88-&gt;845</title>
<path fill="none" stroke="#0d0f73" stroke-width=".5" d="M663.6449,-391.9171C674.8483,-379.7178 688.0075,-365.389 699.4863,-352.8898"/>
<polygon fill="#0d0f73" stroke="#0d0f73" stroke-width=".5" points="700.5952,-353.4935 702.0603,-350.087 698.7906,-351.8362 700.5952,-353.4935"/>
<text text-anchor="middle" x="709.806" y="-374" font-family="Arial" font-size="10.00" fill="#0d0f73">0.54%</text>
<text text-anchor="middle" x="709.806" y="-362" font-family="Arial" font-size="10.00" fill="#0d0f73">10000×</text>
</g>
<!-- 409&#45;&gt;86 -->
<g id="edge21" class="edge">
<title>409-&gt;86</title>
<path fill="none" stroke="#f15a02" stroke-width="3.63" d="M521.2044,-293.9171C510.8922,-283.0505 498.9766,-270.4943 488.1129,-259.0465"/>
<polygon fill="#f15a02" stroke="#f15a02" stroke-width="3.63" points="490.4598,-256.6892 481.5085,-252.087 485.6361,-261.2668 490.4598,-256.6892"/>
<text text-anchor="middle" x="528.8065" y="-276" font-family="Arial" font-size="10.00" fill="#f15a02">90.77%</text>
<text text-anchor="middle" x="528.8065" y="-264" font-family="Arial" font-size="10.00" fill="#f15a02">35×</text>
</g>
<!-- 409&#45;&gt;87 -->
<g id="edge22" class="edge">
<title>409-&gt;87</title>
<path fill="none" stroke="#0d1d78" stroke-width=".5" d="M574.218,-293.9171C585.6704,-281.7178 599.122,-267.389 610.8559,-254.8898"/>
<polygon fill="#0d1d78" stroke="#0d1d78" stroke-width=".5" points="611.9847,-255.4772 613.4871,-252.087 610.1985,-253.8003 611.9847,-255.4772"/>
<text text-anchor="middle" x="618.027" y="-276" font-family="Arial" font-size="10.00" fill="#0d1d78">3.86%</text>
<text text-anchor="middle" x="618.027" y="-264" font-family="Arial" font-size="10.00" fill="#0d1d78">35×</text>
</g>
<!-- 105 -->
<g id="node12" class="node">
<title>105</title>
<g id="a_node12"><a xlink:title="/usr/local/lib/python3.6/dist-packages/numpy/__init__.py">
<polygon fill="#0d1876" stroke="#0d1876" points="117.5639,-644 .1451,-644 .1451,-588 117.5639,-588 117.5639,-644"/>
<text text-anchor="middle" x="58.8545" y="-631" font-family="Arial" font-size="10.00" fill="#ffffff">__init__:106:&lt;module&gt;</text>
<text text-anchor="middle" x="58.8545" y="-619" font-family="Arial" font-size="10.00" fill="#ffffff">2.75%</text>
<text text-anchor="middle" x="58.8545" y="-607" font-family="Arial" font-size="10.00" fill="#ffffff">(0.00%)</text>
<text text-anchor="middle" x="58.8545" y="-595" font-family="Arial" font-size="10.00" fill="#ffffff">1×</text>
</a>
</g>
</g>
<!-- 105&#45;&gt;40 -->
<g id="edge7" class="edge">
<title>105-&gt;40</title>
<path fill="none" stroke="#0d0e73" stroke-width=".5" d="M67.8016,-644.4193C73.1267,-663.8168 78.8545,-690.2105 78.8545,-714 78.8545,-1106 78.8545,-1106 78.8545,-1106 78.8545,-1159.9631 233.5742,-1185.4075 338.4413,-1196.4558"/>
<polygon fill="#0d0e73" stroke="#0d0e73" stroke-width=".5" points="338.5421,-1197.6979 342.1504,-1196.8428 338.7964,-1195.2612 338.5421,-1197.6979"/>
<text text-anchor="middle" x="93.027" y="-913" font-family="Arial" font-size="10.00" fill="#0d0e73">0.22%</text>
<text text-anchor="middle" x="93.027" y="-901" font-family="Arial" font-size="10.00" fill="#0d0e73">5×</text>
</g>
<!-- 105&#45;&gt;179 -->
<g id="edge8" class="edge">
<title>105-&gt;179</title>
<path fill="none" stroke="#0d1776" stroke-width=".5" d="M74.5462,-587.8553C80.8982,-577.2306 88.5964,-565.2427 96.5095,-555 98.0777,-552.9701 99.7418,-550.9274 101.4603,-548.9006"/>
<polygon fill="#0d1776" stroke="#0d1776" stroke-width=".5" points="102.4749,-549.5998 103.8333,-546.1493 100.6197,-547.9996 102.4749,-549.5998"/>
<text text-anchor="middle" x="111.027" y="-570" font-family="Arial" font-size="10.00" fill="#0d1776">2.49%</text>
<text text-anchor="middle" x="111.027" y="-558" font-family="Arial" font-size="10.00" fill="#0d1776">25×</text>
</g>
<!-- 325 -->
<g id="node16" class="node">
<title>325</title>
<g id="a_node16"><a xlink:title="~">
<polygon fill="#0d1776" stroke="#0d1776" points="519.2345,-742 322.4745,-742 322.4745,-686 519.2345,-686 519.2345,-742"/>
<text text-anchor="middle" x="420.8545" y="-729" font-family="Arial" font-size="10.00" fill="#ffffff">~:0:&lt;built-in method builtins.__import__&gt;</text>
<text text-anchor="middle" x="420.8545" y="-717" font-family="Arial" font-size="10.00" fill="#ffffff">2.51%</text>
<text text-anchor="middle" x="420.8545" y="-705" font-family="Arial" font-size="10.00" fill="#ffffff">(0.01%)</text>
<text text-anchor="middle" x="420.8545" y="-693" font-family="Arial" font-size="10.00" fill="#ffffff">321×</text>
</a>
</g>
</g>
<!-- 252&#45;&gt;325 -->
<g id="edge12" class="edge">
<title>252-&gt;325</title>
<path fill="none" stroke="#0d1776" stroke-width=".5" d="M284.5874,-783.9171C309.063,-771.359 337.9365,-756.5443 362.7909,-743.7918"/>
<polygon fill="#0d1776" stroke="#0d1776" stroke-width=".5" points="363.5588,-744.7747 366.1136,-742.087 362.4403,-742.5949 363.5588,-744.7747"/>
<text text-anchor="middle" x="362.027" y="-766" font-family="Arial" font-size="10.00" fill="#0d1776">2.51%</text>
<text text-anchor="middle" x="362.027" y="-754" font-family="Arial" font-size="10.00" fill="#0d1776">12×</text>
</g>
<!-- 340 -->
<g id="node17" class="node">
<title>340</title>
<g id="a_node17"><a xlink:title="~">
<polygon fill="#ff0000" stroke="#ff0000" points="313.8425,-742 145.8665,-742 145.8665,-686 313.8425,-686 313.8425,-742"/>
<text text-anchor="middle" x="229.8545" y="-729" font-family="Arial" font-size="10.00" fill="#ffffff">~:0:&lt;built-in method builtins.exec&gt;</text>
<text text-anchor="middle" x="229.8545" y="-717" font-family="Arial" font-size="10.00" fill="#ffffff">100.00%</text>
<text text-anchor="middle" x="229.8545" y="-705" font-family="Arial" font-size="10.00" fill="#ffffff">(0.11%)</text>
<text text-anchor="middle" x="229.8545" y="-693" font-family="Arial" font-size="10.00" fill="#ffffff">463×</text>
</a>
</g>
</g>
<!-- 252&#45;&gt;340 -->
<g id="edge13" class="edge">
<title>252-&gt;340</title>
<path fill="none" stroke="#0d1976" stroke-width=".5" d="M229.8545,-783.9171C229.8545,-772.0254 229.8545,-758.1101 229.8545,-745.8386"/>
<polygon fill="#0d1976" stroke="#0d1976" stroke-width=".5" points="231.0796,-745.5869 229.8545,-742.087 228.6296,-745.587 231.0796,-745.5869"/>
<text text-anchor="middle" x="244.027" y="-766" font-family="Arial" font-size="10.00" fill="#0d1976">2.79%</text>
<text text-anchor="middle" x="244.027" y="-754" font-family="Arial" font-size="10.00" fill="#0d1976">2×</text>
</g>
<!-- 1048 -->
<g id="node20" class="node">
<title>1048</title>
<g id="a_node20"><a xlink:title="&lt;frozen importlib._bootstrap_external&gt;">
<polygon fill="#0d1976" stroke="#0d1976" points="404.7245,-938 232.9845,-938 232.9845,-882 404.7245,-882 404.7245,-938"/>
<text text-anchor="middle" x="318.8545" y="-925" font-family="Arial" font-size="10.00" fill="#ffffff">&lt;frozen importlib:672:exec_module</text>
<text text-anchor="middle" x="318.8545" y="-913" font-family="Arial" font-size="10.00" fill="#ffffff">2.79%</text>
<text text-anchor="middle" x="318.8545" y="-901" font-family="Arial" font-size="10.00" fill="#ffffff">(0.01%)</text>
<text text-anchor="middle" x="318.8545" y="-889" font-family="Arial" font-size="10.00" fill="#ffffff">133×</text>
</a>
</g>
</g>
<!-- 369&#45;&gt;1048 -->
<g id="edge19" class="edge">
<title>369-&gt;1048</title>
<path fill="none" stroke="#0d1976" stroke-width=".5" d="M320.9948,-979.9171C320.6308,-968.0254 320.2048,-954.1101 319.8291,-941.8386"/>
<polygon fill="#0d1976" stroke="#0d1976" stroke-width=".5" points="321.0459,-941.5478 319.7143,-938.087 318.5971,-941.6228 321.0459,-941.5478"/>
<text text-anchor="middle" x="335.027" y="-962" font-family="Arial" font-size="10.00" fill="#0d1976">2.79%</text>
<text text-anchor="middle" x="335.027" y="-950" font-family="Arial" font-size="10.00" fill="#0d1976">2×</text>
</g>
<!-- 176 -->
<g id="node15" class="node">
<title>176</title>
<g id="a_node15"><a xlink:title="/usr/local/lib/python3.6/dist-packages/numpy/core/overrides.py">
<polygon fill="#0d1074" stroke="#0d1074" points="653.4352,-1232 532.2738,-1232 532.2738,-1176 653.4352,-1176 653.4352,-1232"/>
<text text-anchor="middle" x="592.8545" y="-1219" font-family="Arial" font-size="10.00" fill="#ffffff">overrides:166:decorator</text>
<text text-anchor="middle" x="592.8545" y="-1207" font-family="Arial" font-size="10.00" fill="#ffffff">0.71%</text>
<text text-anchor="middle" x="592.8545" y="-1195" font-family="Arial" font-size="10.00" fill="#ffffff">(0.02%)</text>
<text text-anchor="middle" x="592.8545" y="-1183" font-family="Arial" font-size="10.00" fill="#ffffff">316×</text>
</a>
</g>
</g>
<!-- 325&#45;&gt;40 -->
<g id="edge14" class="edge">
<title>325-&gt;40</title>
<path fill="none" stroke="#0d1776" stroke-width=".5" d="M426.1528,-742.1923C429.3674,-761.7158 432.8545,-788.3455 432.8545,-812 432.8545,-1106 432.8545,-1106 432.8545,-1106 432.8545,-1128.0117 432.8545,-1152.8045 432.8545,-1171.9455"/>
<polygon fill="#0d1776" stroke="#0d1776" stroke-width=".5" points="431.6296,-1172.1959 432.8545,-1175.6959 434.0796,-1172.1959 431.6296,-1172.1959"/>
<text text-anchor="middle" x="447.027" y="-962" font-family="Arial" font-size="10.00" fill="#0d1776">2.51%</text>
<text text-anchor="middle" x="447.027" y="-950" font-family="Arial" font-size="10.00" fill="#0d1776">12×</text>
</g>
<!-- 340&#45;&gt;83 -->
<g id="edge15" class="edge">
<title>340-&gt;83</title>
<path fill="none" stroke="#0d1375" stroke-width=".5" d="M223.2636,-685.9171C220.4486,-673.9228 217.1505,-659.87 214.2524,-647.5216"/>
<polygon fill="#0d1375" stroke="#0d1375" stroke-width=".5" points="215.4387,-647.2145 213.4463,-644.087 213.0535,-647.7743 215.4387,-647.2145"/>
<text text-anchor="middle" x="236.027" y="-668" font-family="Arial" font-size="10.00" fill="#0d1375">1.42%</text>
<text text-anchor="middle" x="236.027" y="-656" font-family="Arial" font-size="10.00" fill="#0d1375">1×</text>
</g>
<!-- 340&#45;&gt;105 -->
<g id="edge16" class="edge">
<title>340-&gt;105</title>
<path fill="none" stroke="#0d1876" stroke-width=".5" d="M195.1943,-685.6397C191.8834,-682.764 188.608,-679.852 185.5095,-677 174.4899,-666.8572 174.4736,-661.0663 161.8545,-653 149.4572,-645.0755 135.1354,-638.5596 121.1879,-633.3253"/>
<polygon fill="#0d1876" stroke="#0d1876" stroke-width=".5" points="121.3591,-632.0829 117.6514,-632.0221 120.5119,-634.3818 121.3591,-632.0829"/>
<text text-anchor="middle" x="200.027" y="-668" font-family="Arial" font-size="10.00" fill="#0d1876">2.75%</text>
<text text-anchor="middle" x="200.027" y="-656" font-family="Arial" font-size="10.00" fill="#0d1876">1×</text>
</g>
<!-- 610 -->
<g id="node18" class="node">
<title>610</title>
<g id="a_node18"><a xlink:title="kmeans_cpu.py">
<polygon fill="#ff0000" stroke="#ff0000" points="572.1168,-644 443.5922,-644 443.5922,-588 572.1168,-588 572.1168,-644"/>
<text text-anchor="middle" x="507.8545" y="-631" font-family="Arial" font-size="10.00" fill="#ffffff">kmeans_cpu:1:&lt;module&gt;</text>
<text text-anchor="middle" x="507.8545" y="-619" font-family="Arial" font-size="10.00" fill="#ffffff">100.00%</text>
<text text-anchor="middle" x="507.8545" y="-607" font-family="Arial" font-size="10.00" fill="#ffffff">(0.02%)</text>
<text text-anchor="middle" x="507.8545" y="-595" font-family="Arial" font-size="10.00" fill="#ffffff">1×</text>
</a>
</g>
</g>
<!-- 340&#45;&gt;610 -->
<g id="edge17" class="edge">
<title>340-&gt;610</title>
<path fill="none" stroke="#ff0000" stroke-width="4" d="M314.047,-686.5197C323.4435,-683.3537 332.8635,-680.1361 341.8545,-677 372.0682,-666.4613 405.1935,-654.3935 433.8523,-643.7882"/>
<polygon fill="#ff0000" stroke="#ff0000" stroke-width="4" points="435.23,-647.0103 443.3895,-640.2521 432.7964,-640.4469 435.23,-647.0103"/>
<text text-anchor="middle" x="425.586" y="-668" font-family="Arial" font-size="10.00" fill="#ff0000">100.00%</text>
<text text-anchor="middle" x="425.586" y="-656" font-family="Arial" font-size="10.00" fill="#ff0000">1×</text>
</g>
<!-- 719 -->
<g id="node19" class="node">
<title>719</title>
<g id="a_node19"><a xlink:title="/usr/local/lib/python3.6/dist-packages/numpy/lib/__init__.py">
<polygon fill="#0d1074" stroke="#0d1074" points="417.0046,-644 304.7044,-644 304.7044,-588 417.0046,-588 417.0046,-644"/>
<text text-anchor="middle" x="360.8545" y="-631" font-family="Arial" font-size="10.00" fill="#ffffff">__init__:13:&lt;module&gt;</text>
<text text-anchor="middle" x="360.8545" y="-619" font-family="Arial" font-size="10.00" fill="#ffffff">0.74%</text>
<text text-anchor="middle" x="360.8545" y="-607" font-family="Arial" font-size="10.00" fill="#ffffff">(0.00%)</text>
<text text-anchor="middle" x="360.8545" y="-595" font-family="Arial" font-size="10.00" fill="#ffffff">1×</text>
</a>
</g>
</g>
<!-- 340&#45;&gt;719 -->
<g id="edge18" class="edge">
<title>340-&gt;719</title>
<path fill="none" stroke="#0d1074" stroke-width=".5" d="M267.3938,-685.9171C283.9752,-673.5128 303.4995,-658.9068 320.4033,-646.2612"/>
<polygon fill="#0d1074" stroke="#0d1074" stroke-width=".5" points="321.2409,-647.1645 323.3097,-644.087 319.7733,-645.2027 321.2409,-647.1645"/>
<text text-anchor="middle" x="326.027" y="-668" font-family="Arial" font-size="10.00" fill="#0d1074">0.74%</text>
<text text-anchor="middle" x="326.027" y="-656" font-family="Arial" font-size="10.00" fill="#0d1074">1×</text>
</g>
<!-- 610&#45;&gt;40 -->
<g id="edge24" class="edge">
<title>610-&gt;40</title>
<path fill="none" stroke="#0d1976" stroke-width=".5" d="M542.5225,-644.0022C560.5455,-661.8424 578.8545,-686.6872 578.8545,-714 578.8545,-1106 578.8545,-1106 578.8545,-1106 578.8545,-1137.6638 554.888,-1159.7569 526.3756,-1174.8369"/>
<polygon fill="#0d1976" stroke="#0d1976" stroke-width=".5" points="525.7879,-1173.7617 523.2417,-1176.4575 526.9133,-1175.9379 525.7879,-1173.7617"/>
<text text-anchor="middle" x="593.027" y="-913" font-family="Arial" font-size="10.00" fill="#0d1976">2.80%</text>
<text text-anchor="middle" x="593.027" y="-901" font-family="Arial" font-size="10.00" fill="#0d1976">2×</text>
</g>
<!-- 427 -->
<g id="node21" class="node">
<title>427</title>
<g id="a_node21"><a xlink:title="kmeans_cpu.py">
<polygon fill="#fa2401" stroke="#fa2401" points="727.1806,-546 548.5284,-546 548.5284,-490 727.1806,-490 727.1806,-546"/>
<text text-anchor="middle" x="637.8545" y="-533" font-family="Arial" font-size="10.00" fill="#ffffff">kmeans_cpu:109:main_kmeans_cpu</text>
<text text-anchor="middle" x="637.8545" y="-521" font-family="Arial" font-size="10.00" fill="#ffffff">96.47%</text>
<text text-anchor="middle" x="637.8545" y="-509" font-family="Arial" font-size="10.00" fill="#ffffff">(0.01%)</text>
<text text-anchor="middle" x="637.8545" y="-497" font-family="Arial" font-size="10.00" fill="#ffffff">1×</text>
</a>
</g>
</g>
<!-- 610&#45;&gt;427 -->
<g id="edge25" class="edge">
<title>610-&gt;427</title>
<path fill="none" stroke="#fa2401" stroke-width="3.86" d="M545.1073,-587.9171C559.9302,-576.743 577.123,-563.7822 592.6499,-552.0773"/>
<polygon fill="#fa2401" stroke="#fa2401" stroke-width="3.86" points="594.8355,-554.7252 600.5963,-546.087 590.706,-549.2473 594.8355,-554.7252"/>
<text text-anchor="middle" x="604.8065" y="-570" font-family="Arial" font-size="10.00" fill="#fa2401">96.47%</text>
<text text-anchor="middle" x="604.8065" y="-558" font-family="Arial" font-size="10.00" fill="#fa2401">1×</text>
</g>
<!-- 939 -->
<g id="node22" class="node">
<title>939</title>
<g id="a_node22"><a xlink:title="kmeans_cpu.py">
<polygon fill="#0d1074" stroke="#0d1074" points="539.0498,-546 386.6592,-546 386.6592,-490 539.0498,-490 539.0498,-546"/>
<text text-anchor="middle" x="462.8545" y="-533" font-family="Arial" font-size="10.00" fill="#ffffff">kmeans_cpu:11:initializePoints</text>
<text text-anchor="middle" x="462.8545" y="-521" font-family="Arial" font-size="10.00" fill="#ffffff">0.70%</text>
<text text-anchor="middle" x="462.8545" y="-509" font-family="Arial" font-size="10.00" fill="#ffffff">(0.00%)</text>
<text text-anchor="middle" x="462.8545" y="-497" font-family="Arial" font-size="10.00" fill="#ffffff">1×</text>
</a>
</g>
</g>
<!-- 610&#45;&gt;939 -->
<g id="edge26" class="edge">
<title>610-&gt;939</title>
<path fill="none" stroke="#0d1074" stroke-width=".5" d="M494.9593,-587.9171C489.4517,-575.9228 482.9989,-561.87 477.3287,-549.5216"/>
<polygon fill="#0d1074" stroke="#0d1074" stroke-width=".5" points="478.3254,-548.7565 475.7516,-546.087 476.0989,-549.7789 478.3254,-548.7565"/>
<text text-anchor="middle" x="504.027" y="-570" font-family="Arial" font-size="10.00" fill="#0d1074">0.70%</text>
<text text-anchor="middle" x="504.027" y="-558" font-family="Arial" font-size="10.00" fill="#0d1074">1×</text>
</g>
<!-- 719&#45;&gt;40 -->
<g id="edge27" class="edge">
<title>719-&gt;40</title>
<path fill="none" stroke="#0d1074" stroke-width=".5" d="M417.114,-637.499C461.0928,-654.7416 516.0575,-677.4279 523.8545,-686 532.6499,-695.6698 532.8545,-700.9285 532.8545,-714 532.8545,-1106 532.8545,-1106 532.8545,-1106 532.8545,-1134.3815 512.0531,-1157.2596 489.4248,-1173.7506"/>
<polygon fill="#0d1074" stroke="#0d1074" stroke-width=".5" points="488.5044,-1172.9025 486.3676,-1175.9331 489.9279,-1174.8965 488.5044,-1172.9025"/>
<text text-anchor="middle" x="547.027" y="-913" font-family="Arial" font-size="10.00" fill="#0d1074">0.67%</text>
<text text-anchor="middle" x="547.027" y="-901" font-family="Arial" font-size="10.00" fill="#0d1074">11×</text>
</g>
<!-- 1048&#45;&gt;252 -->
<g id="edge28" class="edge">
<title>1048-&gt;252</title>
<path fill="none" stroke="#0d1976" stroke-width=".5" d="M293.3507,-881.9171C282.2717,-869.7178 269.2588,-855.389 257.9075,-842.8898"/>
<polygon fill="#0d1976" stroke="#0d1976" stroke-width=".5" points="258.622,-841.8544 255.3621,-840.087 256.8083,-843.5016 258.622,-841.8544"/>
<text text-anchor="middle" x="300.027" y="-864" font-family="Arial" font-size="10.00" fill="#0d1976">2.79%</text>
<text text-anchor="middle" x="300.027" y="-852" font-family="Arial" font-size="10.00" fill="#0d1976">2×</text>
</g>
<!-- 427&#45;&gt;88 -->
<g id="edge23" class="edge">
<title>427-&gt;88</title>
<path fill="none" stroke="#fa2501" stroke-width="3.86" d="M637.8545,-489.9171C637.8545,-479.9731 637.8545,-468.6143 637.8545,-457.9847"/>
<polygon fill="#fa2501" stroke="#fa2501" stroke-width="3.86" points="641.2846,-457.8869 637.8545,-448.087 634.4246,-457.887 641.2846,-457.8869"/>
<text text-anchor="middle" x="654.8065" y="-472" font-family="Arial" font-size="10.00" fill="#fa2501">96.41%</text>
<text text-anchor="middle" x="654.8065" y="-460" font-family="Arial" font-size="10.00" fill="#fa2501">1×</text>
</g>
</g>
</svg>