<?xml version="1.0" encoding="UTF-8" standalone="no"?><!DOCTYPE svg PUBLIC "-//W3C//DTD SVG 1.1//EN" "http://www.w3.org/Graphics/SVG/1.1/DTD/svg11.dtd"><!-- Generated by graphviz version 2.40.1 (20161225.0304)
 --><!-- Title: %0 Pages: 1 --><svg xmlns="http://www.w3.org/2000/svg" xmlns:xlink="http://www.w3.org/1999/xlink" width="497pt" height="848pt" viewBox="0.00 0.00 497.22 848.00">
<g id="graph0" class="graph" transform="scale(1 1) rotate(0) translate(4 844)">
<title>%0</title>
<polygon fill="#ffffff" stroke="transparent" points="-4,4 -4,-844 493.222,-844 493.222,4 -4,4"/>
<!-- 41 -->
<g id="node1" class="node">
<title>41</title>
<g id="a_node1"><a xlink:title="&lt;frozen importlib._bootstrap&gt;">
<polygon fill="#0d0f74" stroke="#0d0f74" points="439.1521,-840 258.6019,-840 258.6019,-784 439.1521,-784 439.1521,-840"/>
<text text-anchor="middle" x="348.877" y="-827" font-family="Arial" font-size="10.00" fill="#ffffff">&lt;frozen importlib:966:_find_and_load</text>
<text text-anchor="middle" x="348.877" y="-815" font-family="Arial" font-size="10.00" fill="#ffffff">0.64%</text>
<text text-anchor="middle" x="348.877" y="-803" font-family="Arial" font-size="10.00" fill="#ffffff">(0.00%)</text>
<text text-anchor="middle" x="348.877" y="-791" font-family="Arial" font-size="10.00" fill="#ffffff">177×</text>
</a>
</g>
</g>
<!-- 148 -->
<g id="node2" class="node">
<title>148</title>
<g id="a_node2"><a xlink:title="&lt;frozen importlib._bootstrap&gt;">
<polygon fill="#0d0f74" stroke="#0d0f74" points="335.2253,-742 108.5287,-742 108.5287,-686 335.2253,-686 335.2253,-742"/>
<text text-anchor="middle" x="221.877" y="-729" font-family="Arial" font-size="10.00" fill="#ffffff">&lt;frozen importlib:936:_find_and_load_unlocked</text>
<text text-anchor="middle" x="221.877" y="-717" font-family="Arial" font-size="10.00" fill="#ffffff">0.64%</text>
<text text-anchor="middle" x="221.877" y="-705" font-family="Arial" font-size="10.00" fill="#ffffff">(0.00%)</text>
<text text-anchor="middle" x="221.877" y="-693" font-family="Arial" font-size="10.00" fill="#ffffff">177×</text>
</a>
</g>
</g>
<!-- 41&#45;&gt;148 -->
<g id="edge1" class="edge">
<title>41-&gt;148</title>
<path fill="none" stroke="#0d0f74" stroke-width=".5" d="M312.4839,-783.9171C296.4089,-771.5128 277.4807,-756.9068 261.093,-744.2612"/>
<polygon fill="#0d0f74" stroke="#0d0f74" stroke-width=".5" points="261.7948,-743.2554 258.2754,-742.087 260.298,-745.195 261.7948,-743.2554"/>
<text text-anchor="middle" x="315.0495" y="-766" font-family="Arial" font-size="10.00" fill="#0d0f74">0.64%</text>
<text text-anchor="middle" x="315.0495" y="-754" font-family="Arial" font-size="10.00" fill="#0d0f74">3×</text>
</g>
<!-- 373 -->
<g id="node7" class="node">
<title>373</title>
<g id="a_node7"><a xlink:title="&lt;frozen importlib._bootstrap&gt;">
<polygon fill="#0d0f74" stroke="#0d0f74" points="313.3145,-644 130.4395,-644 130.4395,-588 313.3145,-588 313.3145,-644"/>
<text text-anchor="middle" x="221.877" y="-631" font-family="Arial" font-size="10.00" fill="#ffffff">&lt;frozen importlib:651:_load_unlocked</text>
<text text-anchor="middle" x="221.877" y="-619" font-family="Arial" font-size="10.00" fill="#ffffff">0.64%</text>
<text text-anchor="middle" x="221.877" y="-607" font-family="Arial" font-size="10.00" fill="#ffffff">(0.00%)</text>
<text text-anchor="middle" x="221.877" y="-595" font-family="Arial" font-size="10.00" fill="#ffffff">169×</text>
</a>
</g>
</g>
<!-- 148&#45;&gt;373 -->
<g id="edge4" class="edge">
<title>148-&gt;373</title>
<path fill="none" stroke="#0d0f74" stroke-width=".5" d="M221.877,-685.9171C221.877,-674.0254 221.877,-660.1101 221.877,-647.8386"/>
<polygon fill="#0d0f74" stroke="#0d0f74" stroke-width=".5" points="223.1021,-647.5869 221.877,-644.087 220.6521,-647.587 223.1021,-647.5869"/>
<text text-anchor="middle" x="236.0495" y="-668" font-family="Arial" font-size="10.00" fill="#0d0f74">0.64%</text>
<text text-anchor="middle" x="236.0495" y="-656" font-family="Arial" font-size="10.00" fill="#0d0f74">3×</text>
</g>
<!-- 89 -->
<g id="node3" class="node">
<title>89</title>
<g id="a_node3"><a xlink:title="pso_cpu.py">
<polygon fill="#fe0800" stroke="#fe0800" points="346.1802,-154 227.5738,-154 227.5738,-98 346.1802,-98 346.1802,-154"/>
<text text-anchor="middle" x="286.877" y="-141" font-family="Arial" font-size="10.00" fill="#ffffff">pso_cpu:51:main_CPU</text>
<text text-anchor="middle" x="286.877" y="-129" font-family="Arial" font-size="10.00" fill="#ffffff">99.20%</text>
<text text-anchor="middle" x="286.877" y="-117" font-family="Arial" font-size="10.00" fill="#ffffff">(1.02%)</text>
<text text-anchor="middle" x="286.877" y="-105" font-family="Arial" font-size="10.00" fill="#ffffff">1×</text>
</a>
</g>
</g>
<!-- 408 -->
<g id="node4" class="node">
<title>408</title>
<g id="a_node4"><a xlink:title="pso_cpu.py">
<polygon fill="#fc1300" stroke="#fc1300" points="349.909,-56 223.845,-56 223.845,0 349.909,0 349.909,-56"/>
<text text-anchor="middle" x="286.877" y="-43" font-family="Arial" font-size="10.00" fill="#ffffff">pso_cpu:30:fitness_CPU</text>
<text text-anchor="middle" x="286.877" y="-31" font-family="Arial" font-size="10.00" fill="#ffffff">98.12%</text>
<text text-anchor="middle" x="286.877" y="-19" font-family="Arial" font-size="10.00" fill="#ffffff">(97.87%)</text>
<text text-anchor="middle" x="286.877" y="-7" font-family="Arial" font-size="10.00" fill="#ffffff">100×</text>
</a>
</g>
</g>
<!-- 89&#45;&gt;408 -->
<g id="edge2" class="edge">
<title>89-&gt;408</title>
<path fill="none" stroke="#fc1300" stroke-width="3.92" d="M286.877,-97.9171C286.877,-88.0757 286.877,-76.8483 286.877,-66.3137"/>
<polygon fill="#fc1300" stroke="#fc1300" stroke-width="3.92" points="290.3421,-65.9869 286.877,-56.087 283.4121,-65.987 290.3421,-65.9869"/>
<text text-anchor="middle" x="303.829" y="-80" font-family="Arial" font-size="10.00" fill="#fc1300">98.12%</text>
<text text-anchor="middle" x="303.829" y="-68" font-family="Arial" font-size="10.00" fill="#fc1300">100×</text>
</g>
<!-- 106 -->
<g id="node5" class="node">
<title>106</title>
<g id="a_node5"><a xlink:title="/usr/local/lib/python3.6/dist-packages/numpy/__init__.py">
<polygon fill="#0d0f74" stroke="#0d0f74" points="203.5864,-252 86.1676,-252 86.1676,-196 203.5864,-196 203.5864,-252"/>
<text text-anchor="middle" x="144.877" y="-239" font-family="Arial" font-size="10.00" fill="#ffffff">__init__:106:&lt;module&gt;</text>
<text text-anchor="middle" x="144.877" y="-227" font-family="Arial" font-size="10.00" fill="#ffffff">0.63%</text>
<text text-anchor="middle" x="144.877" y="-215" font-family="Arial" font-size="10.00" fill="#ffffff">(0.00%)</text>
<text text-anchor="middle" x="144.877" y="-203" font-family="Arial" font-size="10.00" fill="#ffffff">1×</text>
</a>
</g>
</g>
<!-- 180 -->
<g id="node6" class="node">
<title>180</title>
<g id="a_node6"><a xlink:title="&lt;frozen importlib._bootstrap&gt;">
<polygon fill="#0d0f73" stroke="#0d0f73" points="185.6312,-154 .1228,-154 .1228,-98 185.6312,-98 185.6312,-154"/>
<text text-anchor="middle" x="92.877" y="-141" font-family="Arial" font-size="10.00" fill="#ffffff">&lt;frozen importlib:997:_handle_fromlist</text>
<text text-anchor="middle" x="92.877" y="-129" font-family="Arial" font-size="10.00" fill="#ffffff">0.57%</text>
<text text-anchor="middle" x="92.877" y="-117" font-family="Arial" font-size="10.00" fill="#ffffff">(0.00%)</text>
<text text-anchor="middle" x="92.877" y="-105" font-family="Arial" font-size="10.00" fill="#ffffff">904×</text>
</a>
</g>
</g>
<!-- 106&#45;&gt;180 -->
<g id="edge3" class="edge">
<title>106-&gt;180</title>
<path fill="none" stroke="#0d0f73" stroke-width=".5" d="M129.9759,-195.9171C123.5572,-183.8203 116.0274,-169.6297 109.4349,-157.2053"/>
<polygon fill="#0d0f73" stroke="#0d0f73" stroke-width=".5" points="110.503,-156.6045 107.7803,-154.087 108.3387,-157.7529 110.503,-156.6045"/>
<text text-anchor="middle" x="140.0495" y="-178" font-family="Arial" font-size="10.00" fill="#0d0f73">0.56%</text>
<text text-anchor="middle" x="140.0495" y="-166" font-family="Arial" font-size="10.00" fill="#0d0f73">25×</text>
</g>
<!-- 256 -->
<g id="node8" class="node">
<title>256</title>
<g id="a_node8"><a xlink:title="&lt;frozen importlib._bootstrap&gt;">
<polygon fill="#0d0f74" stroke="#0d0f74" points="306.244,-448 69.51,-448 69.51,-392 306.244,-392 306.244,-448"/>
<text text-anchor="middle" x="187.877" y="-435" font-family="Arial" font-size="10.00" fill="#ffffff">&lt;frozen importlib:211:_call_with_frames_removed</text>
<text text-anchor="middle" x="187.877" y="-423" font-family="Arial" font-size="10.00" fill="#ffffff">0.64%</text>
<text text-anchor="middle" x="187.877" y="-411" font-family="Arial" font-size="10.00" fill="#ffffff">(0.00%)</text>
<text text-anchor="middle" x="187.877" y="-399" font-family="Arial" font-size="10.00" fill="#ffffff">253×</text>
</a>
</g>
</g>
<!-- 180&#45;&gt;256 -->
<g id="edge5" class="edge">
<title>180-&gt;256</title>
<path fill="none" stroke="#0d0f73" stroke-width=".5" d="M79.995,-154.3564C61.7355,-199.1215 34.2799,-287.4938 69.877,-350 79.3808,-366.6881 94.6025,-379.8078 110.9978,-389.9515"/>
<polygon fill="#0d0f73" stroke="#0d0f73" stroke-width=".5" points="110.6619,-391.1797 114.2912,-391.9407 111.9287,-389.0826 110.6619,-391.1797"/>
<text text-anchor="middle" x="68.0495" y="-276" font-family="Arial" font-size="10.00" fill="#0d0f73">0.57%</text>
<text text-anchor="middle" x="68.0495" y="-264" font-family="Arial" font-size="10.00" fill="#0d0f73">11×</text>
</g>
<!-- 1025 -->
<g id="node12" class="node">
<title>1025</title>
<g id="a_node12"><a xlink:title="&lt;frozen importlib._bootstrap_external&gt;">
<polygon fill="#0d0f74" stroke="#0d0f74" points="305.747,-546 134.007,-546 134.007,-490 305.747,-490 305.747,-546"/>
<text text-anchor="middle" x="219.877" y="-533" font-family="Arial" font-size="10.00" fill="#ffffff">&lt;frozen importlib:672:exec_module</text>
<text text-anchor="middle" x="219.877" y="-521" font-family="Arial" font-size="10.00" fill="#ffffff">0.64%</text>
<text text-anchor="middle" x="219.877" y="-509" font-family="Arial" font-size="10.00" fill="#ffffff">(0.00%)</text>
<text text-anchor="middle" x="219.877" y="-497" font-family="Arial" font-size="10.00" fill="#ffffff">133×</text>
</a>
</g>
</g>
<!-- 373&#45;&gt;1025 -->
<g id="edge11" class="edge">
<title>373-&gt;1025</title>
<path fill="none" stroke="#0d0f74" stroke-width=".5" d="M221.3039,-587.9171C221.0612,-576.0254 220.7772,-562.1101 220.5268,-549.8386"/>
<polygon fill="#0d0f74" stroke="#0d0f74" stroke-width=".5" points="221.7465,-549.5612 220.4502,-546.087 219.297,-549.6113 221.7465,-549.5612"/>
<text text-anchor="middle" x="236.0495" y="-570" font-family="Arial" font-size="10.00" fill="#0d0f74">0.64%</text>
<text text-anchor="middle" x="236.0495" y="-558" font-family="Arial" font-size="10.00" fill="#0d0f74">2×</text>
</g>
<!-- 329 -->
<g id="node9" class="node">
<title>329</title>
<g id="a_node9"><a xlink:title="~">
<polygon fill="#0d0f73" stroke="#0d0f73" points="447.257,-350 250.497,-350 250.497,-294 447.257,-294 447.257,-350"/>
<text text-anchor="middle" x="348.877" y="-337" font-family="Arial" font-size="10.00" fill="#ffffff">~:0:&lt;built-in method builtins.__import__&gt;</text>
<text text-anchor="middle" x="348.877" y="-325" font-family="Arial" font-size="10.00" fill="#ffffff">0.57%</text>
<text text-anchor="middle" x="348.877" y="-313" font-family="Arial" font-size="10.00" fill="#ffffff">(0.00%)</text>
<text text-anchor="middle" x="348.877" y="-301" font-family="Arial" font-size="10.00" fill="#ffffff">321×</text>
</a>
</g>
</g>
<!-- 256&#45;&gt;329 -->
<g id="edge6" class="edge">
<title>256-&gt;329</title>
<path fill="none" stroke="#0d0f73" stroke-width=".5" d="M234.0131,-391.9171C254.5601,-379.4103 278.7842,-364.6652 299.6766,-351.948"/>
<polygon fill="#0d0f73" stroke="#0d0f73" stroke-width=".5" points="300.3814,-352.9532 302.7341,-350.087 299.1075,-350.8604 300.3814,-352.9532"/>
<text text-anchor="middle" x="302.0495" y="-374" font-family="Arial" font-size="10.00" fill="#0d0f73">0.57%</text>
<text text-anchor="middle" x="302.0495" y="-362" font-family="Arial" font-size="10.00" fill="#0d0f73">12×</text>
</g>
<!-- 344 -->
<g id="node10" class="node">
<title>344</title>
<g id="a_node10"><a xlink:title="~">
<polygon fill="#ff0000" stroke="#ff0000" points="241.865,-350 73.889,-350 73.889,-294 241.865,-294 241.865,-350"/>
<text text-anchor="middle" x="157.877" y="-337" font-family="Arial" font-size="10.00" fill="#ffffff">~:0:&lt;built-in method builtins.exec&gt;</text>
<text text-anchor="middle" x="157.877" y="-325" font-family="Arial" font-size="10.00" fill="#ffffff">100.00%</text>
<text text-anchor="middle" x="157.877" y="-313" font-family="Arial" font-size="10.00" fill="#ffffff">(0.03%)</text>
<text text-anchor="middle" x="157.877" y="-301" font-family="Arial" font-size="10.00" fill="#ffffff">463×</text>
</a>
</g>
</g>
<!-- 256&#45;&gt;344 -->
<g id="edge7" class="edge">
<title>256-&gt;344</title>
<path fill="none" stroke="#0d0f74" stroke-width=".5" d="M179.2802,-391.9171C175.6085,-379.9228 171.3066,-365.87 167.5265,-353.5216"/>
<polygon fill="#0d0f74" stroke="#0d0f74" stroke-width=".5" points="168.671,-353.0751 166.4751,-350.087 166.3283,-353.7923 168.671,-353.0751"/>
<text text-anchor="middle" x="191.0495" y="-374" font-family="Arial" font-size="10.00" fill="#0d0f74">0.64%</text>
<text text-anchor="middle" x="191.0495" y="-362" font-family="Arial" font-size="10.00" fill="#0d0f74">2×</text>
</g>
<!-- 329&#45;&gt;41 -->
<g id="edge8" class="edge">
<title>329-&gt;41</title>
<path fill="none" stroke="#0d0f73" stroke-width=".5" d="M348.877,-350.3041C348.877,-369.8775 348.877,-396.5208 348.877,-420 348.877,-714 348.877,-714 348.877,-714 348.877,-736.0117 348.877,-760.8045 348.877,-779.9455"/>
<polygon fill="#0d0f73" stroke="#0d0f73" stroke-width=".5" points="347.6521,-780.1959 348.877,-783.6959 350.1021,-780.1959 347.6521,-780.1959"/>
<text text-anchor="middle" x="363.0495" y="-570" font-family="Arial" font-size="10.00" fill="#0d0f73">0.57%</text>
<text text-anchor="middle" x="363.0495" y="-558" font-family="Arial" font-size="10.00" fill="#0d0f73">12×</text>
</g>
<!-- 344&#45;&gt;106 -->
<g id="edge9" class="edge">
<title>344-&gt;106</title>
<path fill="none" stroke="#0d0f74" stroke-width=".5" d="M154.1517,-293.9171C152.5742,-282.0254 150.7283,-268.1101 149.1005,-255.8386"/>
<polygon fill="#0d0f74" stroke="#0d0f74" stroke-width=".5" points="150.2775,-255.3955 148.6028,-252.087 147.8488,-255.7177 150.2775,-255.3955"/>
<text text-anchor="middle" x="168.0495" y="-276" font-family="Arial" font-size="10.00" fill="#0d0f74">0.63%</text>
<text text-anchor="middle" x="168.0495" y="-264" font-family="Arial" font-size="10.00" fill="#0d0f74">1×</text>
</g>
<!-- 609 -->
<g id="node11" class="node">
<title>609</title>
<g id="a_node11"><a xlink:title="pso_cpu.py">
<polygon fill="#ff0000" stroke="#ff0000" points="341.7516,-252 232.0024,-252 232.0024,-196 341.7516,-196 341.7516,-252"/>
<text text-anchor="middle" x="286.877" y="-239" font-family="Arial" font-size="10.00" fill="#ffffff">pso_cpu:1:&lt;module&gt;</text>
<text text-anchor="middle" x="286.877" y="-227" font-family="Arial" font-size="10.00" fill="#ffffff">100.00%</text>
<text text-anchor="middle" x="286.877" y="-215" font-family="Arial" font-size="10.00" fill="#ffffff">(0.00%)</text>
<text text-anchor="middle" x="286.877" y="-203" font-family="Arial" font-size="10.00" fill="#ffffff">1×</text>
</a>
</g>
</g>
<!-- 344&#45;&gt;609 -->
<g id="edge10" class="edge">
<title>344-&gt;609</title>
<path fill="none" stroke="#ff0000" stroke-width="4" d="M194.8432,-293.9171C209.4171,-282.8455 226.2999,-270.0198 241.5957,-258.3997"/>
<polygon fill="#ff0000" stroke="#ff0000" stroke-width="4" points="244.0598,-260.9233 249.9054,-252.087 239.8253,-255.3493 244.0598,-260.9233"/>
<text text-anchor="middle" x="257.6085" y="-276" font-family="Arial" font-size="10.00" fill="#ff0000">100.00%</text>
<text text-anchor="middle" x="257.6085" y="-264" font-family="Arial" font-size="10.00" fill="#ff0000">1×</text>
</g>
<!-- 609&#45;&gt;41 -->
<g id="edge12" class="edge">
<title>609-&gt;41</title>
<path fill="none" stroke="#0d0f74" stroke-width=".5" d="M341.9317,-231.6055C392.9082,-242.1146 460.877,-266.5278 460.877,-322 460.877,-714 460.877,-714 460.877,-714 460.877,-743.2969 438.9038,-765.8673 414.4228,-781.9221"/>
<polygon fill="#0d0f74" stroke="#0d0f74" stroke-width=".5" points="413.7084,-780.925 411.4261,-783.8477 415.0329,-782.9862 413.7084,-780.925"/>
<text text-anchor="middle" x="475.0495" y="-521" font-family="Arial" font-size="10.00" fill="#0d0f74">0.64%</text>
<text text-anchor="middle" x="475.0495" y="-509" font-family="Arial" font-size="10.00" fill="#0d0f74">3×</text>
</g>
<!-- 609&#45;&gt;89 -->
<g id="edge13" class="edge">
<title>609-&gt;89</title>
<path fill="none" stroke="#fe0800" stroke-width="3.97" d="M286.877,-195.9171C286.877,-186.0757 286.877,-174.8483 286.877,-164.3137"/>
<polygon fill="#fe0800" stroke="#fe0800" stroke-width="3.97" points="290.3771,-164.0869 286.877,-154.087 283.3771,-164.087 290.3771,-164.0869"/>
<text text-anchor="middle" x="303.829" y="-178" font-family="Arial" font-size="10.00" fill="#fe0800">99.20%</text>
<text text-anchor="middle" x="303.829" y="-166" font-family="Arial" font-size="10.00" fill="#fe0800">1×</text>
</g>
<!-- 1025&#45;&gt;256 -->
<g id="edge14" class="edge">
<title>1025-&gt;256</title>
<path fill="none" stroke="#0d0f74" stroke-width=".5" d="M210.7071,-489.9171C206.7906,-477.9228 202.2019,-463.87 198.1698,-451.5216"/>
<polygon fill="#0d0f74" stroke="#0d0f74" stroke-width=".5" points="199.2992,-451.0338 197.0483,-448.087 196.9702,-451.7944 199.2992,-451.0338"/>
<text text-anchor="middle" x="222.0495" y="-472" font-family="Arial" font-size="10.00" fill="#0d0f74">0.64%</text>
<text text-anchor="middle" x="222.0495" y="-460" font-family="Arial" font-size="10.00" fill="#0d0f74">2×</text>
</g>
</g>
</svg>